<svg id="icon" width="24" height="24" viewBox="0 0 24 24" fill="none" xmlns="http://www.w3.org/2000/svg">
<path d="M12.0063 11.657V11.667M14.8342 8.82901C15.5841 9.57912 16.0054 10.5964 16.0054 11.657C16.0054 12.7177 15.5841 13.7349 14.8342 14.485M17.6633 6C18.4062 6.74287 18.9956 7.62481 19.3976 8.59544C19.7997 9.56607 20.0066 10.6064 20.0066 11.657C20.0066 12.7076 19.7997 13.7479 19.3976 14.7186C18.9956 15.6892 18.4062 16.5711 17.6633 17.314M9.17432 14.485C8.42444 13.7349 8.00317 12.7177 8.00317 11.657C8.00317 10.5964 8.42444 9.57912 9.17432 8.82901M6.34329 17.314C5.60038 16.5711 5.01107 15.6892 4.609 14.7186C4.20694 13.7479 4 12.7076 4 11.657C4 10.6064 4.20694 9.56607 4.609 8.59544C5.01107 7.62481 5.60038 6.74287 6.34329 6" stroke="currentColor" stroke-width="1.5" stroke-linecap="round" stroke-linejoin="round"/>
</svg>
