<svg id="icon" width="24" height="24" viewBox="0 0 24 24" fill="none" xmlns="http://www.w3.org/2000/svg">
<path d="M17 16.8363V16.8463M13 16.8363V16.8463M15 12.8363V10.8363M11.75 8.58631C12.1203 8.07015 12.6083 7.64963 13.1734 7.35954C13.7386 7.06946 14.3647 6.91815 15 6.91815C15.6353 6.91815 16.2614 7.06946 16.8266 7.35954C17.3917 7.64963 17.8797 8.07015 18.25 8.58631M8.5 6.33631C9.24067 5.30401 10.2166 4.46296 11.3469 3.88278C12.4772 3.30261 13.7295 3 15 3C16.2705 3 17.5228 3.30261 18.6531 3.88278C19.7834 4.46296 20.7593 5.30401 21.5 6.33631M3 14.8363C3 14.3059 3.21071 13.7972 3.58579 13.4221C3.96086 13.047 4.46957 12.8363 5 12.8363H19C19.5304 12.8363 20.0391 13.047 20.4142 13.4221C20.7893 13.7972 21 14.3059 21 14.8363V18.8363C21 19.3667 20.7893 19.8754 20.4142 20.2505C20.0391 20.6256 19.5304 20.8363 19 20.8363H5C4.46957 20.8363 3.96086 20.6256 3.58579 20.2505C3.21071 19.8754 3 19.3667 3 18.8363V14.8363Z" stroke="currentColor" stroke-width="1.5" stroke-linecap="round" stroke-linejoin="round"/>
</svg>
