<svg id="icon" width="24" height="24" viewBox="0 0 24 24" fill="none" xmlns="http://www.w3.org/2000/svg">
<path d="M8.66667 13.5V13.5063M5 4H9L12 7H19C19.5304 7 20.0391 7.21071 20.4142 7.58579C20.7893 7.96086 21 8.46957 21 9V17C21 17.5304 20.7893 18.0391 20.4142 18.4142C20.0391 18.7893 19.5304 19 19 19H5C4.46957 19 3.96086 18.7893 3.58579 18.4142C3.21071 18.0391 3 17.5304 3 17V6C3 5.46957 3.21071 4.96086 3.58579 4.58579C3.96086 4.21071 4.46957 4 5 4ZM6 12.875C6 12.3777 6.21071 11.9008 6.58579 11.5492C6.96086 11.1975 7.46957 11 8 11H16C16.5304 11 17.0391 11.1975 17.4142 11.5492C17.7893 11.9008 18 12.3777 18 12.875V14.125C18 14.6223 17.7893 15.0992 17.4142 15.4508C17.0391 15.8025 16.5304 16 16 16H8C7.46957 16 6.96086 15.8025 6.58579 15.4508C6.21071 15.0992 6 14.6223 6 14.125V12.875Z" stroke="currentColor" stroke-width="1.5" stroke-linecap="round" stroke-linejoin="round"/>
</svg>
