<svg id="icon" width="24" height="24" viewBox="0 0 24 24" fill="none" xmlns="http://www.w3.org/2000/svg">
<path d="M11.9994 6.99945V11.9995L13.9994 13.9995M13.0164 20.9424C11.1343 21.1564 9.23261 20.771 7.58227 19.8412C5.93193 18.9114 4.61704 17.4845 3.82485 15.7639C3.03266 14.0432 2.80356 12.1165 3.17019 10.2581C3.53681 8.39966 4.48047 6.70429 5.86676 5.41341C7.25305 4.12254 9.0113 3.30197 10.8911 3.06858C12.7709 2.83519 14.6765 3.20087 16.3363 4.11355C17.9962 5.02623 19.3258 6.43936 20.1358 8.15171C20.9457 9.86406 21.1948 11.7883 20.8474 13.6504M16.9994 21.9995L21.9994 18.9995L16.9994 15.9995V21.9995Z" stroke="currentColor" stroke-width="1.5" stroke-linecap="round" stroke-linejoin="round"/>
</svg>
