<svg id="icon" width="24" height="24" viewBox="0 0 24 24" fill="none" xmlns="http://www.w3.org/2000/svg">
<path d="M11.5981 15C10.0068 15 8.48072 14.3679 7.3555 13.2426C6.23029 12.1174 5.59814 10.5913 5.59814 9C5.59814 7.4087 6.23029 5.88258 7.3555 4.75736C8.48072 3.63214 10.0068 3 11.5981 3C13.1894 3 14.7156 3.63214 15.8408 4.75736C16.966 5.88258 17.5981 7.4087 17.5981 9C17.5981 10.5913 16.966 12.1174 15.8408 13.2426C14.7156 14.3679 13.1894 15 11.5981 15ZM11.5981 15L14.9981 20.89L16.5961 17.657L20.1941 17.889L16.7941 12M6.4 12L3 17.89L6.598 17.657L8.196 20.889L11.596 15" stroke="currentColor" stroke-width="1.5" stroke-linecap="round" stroke-linejoin="round"/>
</svg>
