<svg id="icon" width="24" height="24" viewBox="0 0 24 24" fill="none" xmlns="http://www.w3.org/2000/svg">
<path d="m12 21.5a.5.5 0 000 1 .5.5 0 000-1m-5-1.4a.5.5 0 000 1 .5.5 0 000-1m10 0a.5.5 0 000 1 .5.5 0 000-1M12 6.5a5.5 5.5 0 000 11 5.5 5.5 0 000-11M2.8 17a.5.5 0 001 0 .5.5 0 00-1 0m17.3 0a.5.5 0 001 0 .5.5 0 00-1 0M2 11.5a.5.5 0 000 1 .5.5 0 000-1m20 0a.5.5 0 000 1 .5.5 0 000-1M2.8 7a.5.5 0 001 0 .5.5 0 00-1 0m17.3 0a.5.5 0 001 0 .5.5 0 00-1 0M7 2.8a.5.5 0 000 1 .5.5 0 000-1m10 0a.5.5 0 000 1 .5.5 0 000-1m-5-1.3a.5.5 0 000 1 .5.5 0 000-1" stroke="currentColor" stroke-width="1.5" stroke-linecap="round" stroke-linejoin="round"/>
</svg>
