<svg id="icon" width="24" height="24" viewBox="0 0 24 24" fill="none" xmlns="http://www.w3.org/2000/svg">
<path d="M7 21H17M6 7L12 6L18 7M6 7L9 13C9 13.7956 8.68393 14.5587 8.12132 15.1213C7.55871 15.6839 6.79565 16 6 16C5.20435 16 4.44129 15.6839 3.87868 15.1213C3.31607 14.5587 3 13.7956 3 13L6 7ZM18 7L21 13C21 13.7956 20.6839 14.5587 20.1213 15.1213C19.5587 15.6839 18.7956 16 18 16C17.2044 16 16.4413 15.6839 15.8787 15.1213C15.3161 14.5587 15 13.7956 15 13L18 7ZM12 4V21" stroke="currentColor" stroke-width="1.5" stroke-linecap="round" stroke-linejoin="round"/>
</svg>
