<svg id="icon" width="24" height="24" viewBox="0 0 24 24" fill="none" xmlns="http://www.w3.org/2000/svg">
<path d="M9 11C9 10.2044 9.31607 9.44129 9.87868 8.87868C10.4413 8.31607 11.2044 8 12 8C12.7956 8 13.5587 8.31607 14.1213 8.87868C14.6839 9.44129 15 10.2044 15 11C15 12.657 15.612 14.082 16 15M12 11V12.75C11.999 13.86 12.661 14.956 13 16M9 14.25C9.068 14.83 9.358 15.436 9.5 16M3 5C3 4.46957 3.21071 3.96086 3.58579 3.58579C3.96086 3.21071 4.46957 3 5 3H19C19.5304 3 20.0391 3.21071 20.4142 3.58579C20.7893 3.96086 21 4.46957 21 5V19C21 19.5304 20.7893 20.0391 20.4142 20.4142C20.0391 20.7893 19.5304 21 19 21H5C4.46957 21 3.96086 20.7893 3.58579 20.4142C3.21071 20.0391 3 19.5304 3 19V5Z" stroke="currentColor" stroke-width="1.5" stroke-linecap="round" stroke-linejoin="round"/>
</svg>
