<svg id="icon" width="24" height="24" viewBox="0 0 24 24" fill="none" xmlns="http://www.w3.org/2000/svg">
<path d="M8 5.00052C8 4.7353 7.89464 4.48095 7.70711 4.29341C7.51957 4.10588 7.26522 4.00052 7 4.00052H5C4.73478 4.00052 4.48043 4.10588 4.29289 4.29341C4.10536 4.48095 4 4.7353 4 5.00052V19.0005C4 19.2657 4.10536 19.5201 4.29289 19.7076C4.48043 19.8952 4.73478 20.0005 5 20.0005H7C7.26522 20.0005 7.51957 19.8952 7.70711 19.7076C7.89464 19.5201 8 19.2657 8 19.0005M8 5.00052V19.0005M8 5.00052C8 4.7353 8.10536 4.48095 8.29289 4.29341C8.48043 4.10588 8.73478 4.00052 9 4.00052H11C11.2652 4.00052 11.5196 4.10588 11.7071 4.29341C11.8946 4.48095 12 4.7353 12 5.00052V19.0005C12 19.2657 11.8946 19.5201 11.7071 19.7076C11.5196 19.8952 11.2652 20.0005 11 20.0005H9C8.73478 20.0005 8.48043 19.8952 8.29289 19.7076C8.10536 19.5201 8 19.2657 8 19.0005M4 8.00052H8M8 16.0005H12M13 9.00052L17 8.00052M15 16.0005L18.923 15.0205M12.8031 4.56053L14.9871 4.03053C15.5491 3.89553 16.1201 4.22053 16.2691 4.76253L19.9641 18.1805C20.0293 18.4262 20.0004 18.6873 19.8831 18.9128C19.7659 19.1383 19.5686 19.3119 19.3301 19.3995L19.1971 19.4405L17.0131 19.9705C16.4511 20.1055 15.8801 19.7805 15.7311 19.2385L12.0361 5.82053C11.9709 5.57488 11.9998 5.31374 12.117 5.08826C12.2343 4.86278 12.4315 4.68921 12.6701 4.60153L12.8031 4.56053Z" stroke="currentColor" stroke-width="1.5" stroke-linecap="round" stroke-linejoin="round"/>
</svg>
