<svg id="icon" width="24" height="24" viewBox="0 0 24 24" fill="none" xmlns="http://www.w3.org/2000/svg">
<path d="M6 10H10M8 10V14M8.104 17C8.574 19.274 10.587 21 13 21C14.3261 21 15.5979 20.4732 16.5355 19.5355C17.4732 18.5979 18 17.3261 18 16V9M18 9H13M18 9H22V14C22 15.0609 21.5786 16.0783 20.8284 16.8284C20.0783 17.5786 19.0609 18 18 18M13.003 8.83C13.6445 9.05595 14.3438 9.0572 14.9861 8.83354C15.6284 8.60989 16.1757 8.1746 16.5382 7.59907C16.9006 7.02354 17.0567 6.34192 16.9809 5.66601C16.9051 4.99009 16.6019 4.36 16.1209 3.87906C15.64 3.39812 15.0099 3.09488 14.334 3.01907C13.6581 2.94326 12.9765 3.09939 12.4009 3.46184C11.8254 3.82429 11.3901 4.37155 11.1665 5.01388C10.9428 5.65621 10.944 6.35547 11.17 6.997M15.83 8.36C16.1668 8.6623 16.5793 8.86752 17.0235 8.95377C17.4678 9.04002 17.9271 9.00407 18.3525 8.84974C18.778 8.69542 19.1535 8.42851 19.4391 8.07749C19.7248 7.72647 19.9098 7.30451 19.9744 6.8566C20.039 6.40869 19.9808 5.95164 19.8061 5.5342C19.6313 5.11675 19.3465 4.75457 18.9821 4.48629C18.6176 4.218 18.1872 4.05367 17.7367 4.01082C17.2862 3.96798 16.8325 4.04822 16.424 4.243M3 7H13V17H3V7Z" stroke="currentColor" stroke-width="1.5" stroke-linecap="round" stroke-linejoin="round"/>
</svg>
