<svg id="icon" width="24" height="24" viewBox="0 0 24 24" fill="none" xmlns="http://www.w3.org/2000/svg">
<path d="M20 20L17.3333 17.3333M4 8H20M12 20H6C5.46957 20 4.96086 19.7893 4.58579 19.4142C4.21071 19.0391 4 18.5304 4 18V6C4 5.46957 4.21071 4.96086 4.58579 4.58579C4.96086 4.21071 5.46957 4 6 4H18C18.5304 4 19.0391 4.21071 19.4142 4.58579C19.7893 4.96086 20 5.46957 20 6V12M8 4V8M12 15.1111C12 15.5197 12.0805 15.9242 12.2368 16.3017C12.3932 16.6791 12.6223 17.0221 12.9112 17.311C13.2001 17.5999 13.5431 17.8291 13.9205 17.9854C14.298 18.1418 14.7026 18.2222 15.1111 18.2222C15.5197 18.2222 15.9242 18.1418 16.3017 17.9854C16.6791 17.8291 17.0221 17.5999 17.311 17.311C17.5999 17.0221 17.8291 16.6791 17.9854 16.3017C18.1418 15.9242 18.2222 15.5197 18.2222 15.1111C18.2222 14.7026 18.1418 14.298 17.9854 13.9205C17.8291 13.5431 17.5999 13.2001 17.311 12.9112C17.0221 12.6223 16.6791 12.3932 16.3017 12.2368C15.9242 12.0805 15.5197 12 15.1111 12C14.7026 12 14.298 12.0805 13.9205 12.2368C13.5431 12.3932 13.2001 12.6223 12.9112 12.9112C12.6223 13.2001 12.3932 13.5431 12.2368 13.9205C12.0805 14.298 12 14.7026 12 15.1111Z" stroke="currentColor" stroke-width="1.5" stroke-linecap="round" stroke-linejoin="round"/>
</svg>
