<svg id="icon" width="24" height="24" viewBox="0 0 24 24" fill="none" xmlns="http://www.w3.org/2000/svg">
<path d="M13 16.5V21L15 19.5L17 21V16.5M10 18H5C4.46957 18 3.96086 17.7893 3.58579 17.4142C3.21071 17.0391 3 16.5304 3 16V6C3 4.9 3.9 4 5 4H19C19.5304 4 20.0391 4.21071 20.4142 4.58579C20.7893 4.96086 21 5.46957 21 6V16C20.9996 16.3507 20.9071 16.6952 20.7315 16.9988C20.556 17.3025 20.3037 17.5546 20 17.73M6 8H18M6 11H9M6 14H8M12 14C12 14.7956 12.3161 15.5587 12.8787 16.1213C13.4413 16.6839 14.2044 17 15 17C15.7956 17 16.5587 16.6839 17.1213 16.1213C17.6839 15.5587 18 14.7956 18 14C18 13.2044 17.6839 12.4413 17.1213 11.8787C16.5587 11.3161 15.7956 11 15 11C14.2044 11 13.4413 11.3161 12.8787 11.8787C12.3161 12.4413 12 13.2044 12 14Z" stroke="currentColor" stroke-width="1.5" stroke-linecap="round" stroke-linejoin="round"/>
</svg>
