<svg id="icon" width="24" height="24" viewBox="0 0 24 24" fill="none" xmlns="http://www.w3.org/2000/svg">
<path d="M9.96749 3.00613C8.4032 3.36878 6.96441 4.14333 5.80037 5.24947C4.63633 6.35561 3.78943 7.75304 3.34752 9.29681C2.90561 10.8406 2.88478 12.4745 3.28718 14.029C3.68959 15.5836 4.50058 17.0021 5.63604 18.1376C6.7715 19.273 8.19007 20.084 9.74461 20.4864C11.2992 20.8889 12.933 20.868 14.4768 20.4261C16.0206 19.9842 17.418 19.1373 18.5242 17.9733C19.6303 16.8092 20.4049 15.3704 20.7675 13.8061C20.7675 13.5409 20.6621 13.2866 20.4746 13.099C20.2871 12.9115 20.0327 12.8061 19.7675 12.8061H15.9675C15.7857 13.5051 15.4225 14.1437 14.9146 14.6572C14.4067 15.1708 13.7722 15.541 13.0752 15.7305C12.3783 15.92 11.6436 15.922 10.9456 15.7364C10.2476 15.5507 9.61107 15.184 9.10036 14.6733C8.58965 14.1626 8.22291 13.526 8.03726 12.828C7.85161 12.13 7.85363 11.3954 8.04313 10.6984C8.23263 10.0015 8.60287 9.36693 9.11639 8.85905C9.62992 8.35116 10.2685 7.98793 10.9675 7.80614V3.80614C10.9551 3.68766 10.9193 3.57283 10.8621 3.4683C10.805 3.36378 10.7277 3.27163 10.6346 3.19722C10.5416 3.1228 10.4347 3.06759 10.3202 3.03479C10.2057 3.00199 10.0858 2.99225 9.96749 3.00613ZM14.9673 3.30615C16.237 3.75324 17.3903 4.47945 18.3421 5.43131C19.294 6.38317 20.0202 7.53643 20.4673 8.80615H15.9673C15.6607 8.44711 15.3263 8.11274 14.9673 7.80615V3.30615Z" stroke="currentColor" stroke-width="1.5" stroke-linecap="round" stroke-linejoin="round"/>
</svg>
