<svg id="icon" width="24" height="24" viewBox="0 0 24 24" fill="none" xmlns="http://www.w3.org/2000/svg">
<path d="M12 15.5556V20M15.6 13.7778V20M19.2 10.2222V20M21 4L13.2186 11.6853C13.1768 11.7267 13.1271 11.7596 13.0725 11.782C13.0178 11.8044 12.9592 11.8159 12.9 11.8159C12.8408 11.8159 12.7822 11.8044 12.7275 11.782C12.6729 11.7596 12.6232 11.7267 12.5814 11.6853L9.6186 8.75911C9.53421 8.67579 9.41977 8.62898 9.30045 8.62898C9.18113 8.62898 9.06669 8.67579 8.9823 8.75911L3 14.6667M4.8 17.3333V20M8.4 13.7778V20" stroke="currentColor" stroke-width="1.5" stroke-linecap="round" stroke-linejoin="round"/>
</svg>
