<svg id="icon" width="24" height="24" viewBox="0 0 24 24" fill="none" xmlns="http://www.w3.org/2000/svg">
<path d="M4.61133 9H18.6113M6.61133 15H16.6113M3.99824 3H19.2242C19.3826 3.00012 19.5387 3.03785 19.6796 3.11009C19.8205 3.18233 19.9423 3.287 20.0349 3.4155C20.1274 3.544 20.1882 3.69264 20.212 3.8492C20.2359 4.00576 20.2223 4.16575 20.1722 4.316L15.0672 19.632C14.9345 20.0304 14.6798 20.3769 14.3391 20.6225C13.9985 20.868 13.5892 21.0001 13.1692 21H10.0532C9.63331 21.0001 9.224 20.868 8.88334 20.6225C8.54268 20.3769 8.28794 20.0304 8.15524 19.632L3.05124 4.316C3.00122 4.16583 2.98757 4.00593 3.0114 3.84945C3.03523 3.69297 3.09586 3.54438 3.18831 3.4159C3.28077 3.28743 3.40239 3.18273 3.5432 3.11043C3.684 3.03813 3.83996 3.00028 3.99824 3Z" stroke="currentColor" stroke-width="1.5" stroke-linecap="round" stroke-linejoin="round"/>
</svg>
