<svg id="icon" width="24" height="24" viewBox="0 0 24 24" fill="none" xmlns="http://www.w3.org/2000/svg">
<path d="M12 6.75C12.6893 6.75 13.3719 6.88567 14.0088 7.14941C14.6457 7.41325 15.2244 7.80058 15.7119 8.28809C16.1994 8.77559 16.5867 9.35425 16.8506 9.99121C17.1143 10.6281 17.25 11.3107 17.25 12C17.25 12.6893 17.1143 13.3719 16.8506 14.0088C16.5867 14.6457 16.1994 15.2244 15.7119 15.7119C15.2244 16.1994 14.6457 16.5867 14.0088 16.8506C13.3719 17.1143 12.6893 17.25 12 17.25C11.3107 17.25 10.6281 17.1143 9.99121 16.8506C9.35425 16.5867 8.77559 16.1994 8.28809 15.7119C7.80058 15.2244 7.41325 14.6457 7.14941 14.0088C6.88567 13.3719 6.75 12.6893 6.75 12L6.75684 11.7422C6.7864 11.141 6.9186 10.5485 7.14941 9.99121C7.41325 9.35425 7.80058 8.77559 8.28809 8.28809C8.77559 7.80058 9.35425 7.41325 9.99121 7.14941C10.5485 6.9186 11.141 6.7864 11.7422 6.75684L12 6.75Z" stroke="currentColor" stroke-width="1.5" stroke-linecap="round" stroke-linejoin="round"/>
</svg>
