<svg id="icon" width="24" height="24" viewBox="0 0 24 24" fill="none" xmlns="http://www.w3.org/2000/svg">
<path d="M6.36751 6.33759C5.62181 7.07536 5.02869 7.95436 4.62236 8.92388C4.21603 9.8934 4.00454 10.9343 4.00007 11.9864C3.99561 13.0386 4.19827 14.0812 4.59636 15.0542C4.99444 16.0272 5.58009 16.9112 6.3195 17.6554C7.05891 18.3995 7.93747 18.989 8.90448 19.3899C9.8715 19.7908 10.9078 19.995 11.9537 19.991C12.9996 19.9869 14.0343 19.7745 14.9982 19.3662C15.9621 18.9578 16.8361 18.3614 17.5698 17.6115M19.7957 13.2353C19.9287 12.4026 19.9303 11.5488 19.7957 10.7059C19.5312 9.05007 18.7542 7.52039 17.5755 6.33454C16.3967 5.14869 14.8761 4.36709 13.2302 4.10099C12.3923 3.96552 11.5436 3.96716 10.7158 4.10099M4.10393 4.00897L20 20" stroke="currentColor" stroke-width="1.5" stroke-linecap="round" stroke-linejoin="round"/>
</svg>
