<svg id="icon" width="24" height="24" viewBox="0 0 24 24" fill="none" xmlns="http://www.w3.org/2000/svg">
<path d="M11 17.0039H6.657C4.085 16.9999 2 14.9929 2 12.5169C2 10.0419 4.085 8.03488 6.657 8.03488C7.05 6.27288 8.451 4.83488 10.332 4.26188C12.212 3.68988 14.288 4.06888 15.776 5.26188C17.264 6.45188 17.938 8.26888 17.546 10.0309H18.536M20.2 19.1999L22 20.9999M15 16.9999C15 17.7955 15.3161 18.5586 15.8787 19.1212C16.4413 19.6838 17.2044 19.9999 18 19.9999C18.7956 19.9999 19.5587 19.6838 20.1213 19.1212C20.6839 18.5586 21 17.7955 21 16.9999C21 16.2042 20.6839 15.4412 20.1213 14.8786C19.5587 14.3159 18.7956 13.9999 18 13.9999C17.2044 13.9999 16.4413 14.3159 15.8787 14.8786C15.3161 15.4412 15 16.2042 15 16.9999Z" stroke="currentColor" stroke-width="1.5" stroke-linecap="round" stroke-linejoin="round"/>
</svg>
