<svg id="icon" width="24" height="24" viewBox="0 0 24 24" fill="none" xmlns="http://www.w3.org/2000/svg">
<path d="M9.58 5.54801C9.82 5.43801 10.072 5.34101 10.332 5.26201C12.212 4.69001 14.288 5.06901 15.776 6.26201C17.264 7.45201 17.938 9.26901 17.546 11.031H18.536C20.449 11.031 22 12.591 22 14.517C22 15.474 21.617 16.341 20.997 16.971M18 18.004H6.657C4.085 18 2 15.993 2 13.517C2 11.042 4.085 9.03501 6.657 9.03501C6.787 8.45301 7.027 7.90701 7.357 7.41501M3 3L21 21" stroke="currentColor" stroke-width="1.5" stroke-linecap="round" stroke-linejoin="round"/>
</svg>
