<svg id="icon" width="24" height="24" viewBox="0 0 24 24" fill="none" xmlns="http://www.w3.org/2000/svg">
<path d="M15.9333 9.5L21 14.5M15.9333 14.5L21 9.5M3.26667 2H8.33333C8.66927 2 8.99146 2.1317 9.229 2.36612C9.46655 2.60054 9.6 2.91848 9.6 3.25V20.75C9.6 21.0815 9.46655 21.3995 9.229 21.6339C8.99146 21.8683 8.66927 22 8.33333 22H3.26667C2.93073 22 2.60854 21.8683 2.371 21.6339C2.13345 21.3995 2 21.0815 2 20.75V3.25C2 2.91848 2.13345 2.60054 2.371 2.36612C2.60854 2.1317 2.93073 2 3.26667 2Z" stroke="currentColor" stroke-width="1.5" stroke-linecap="round" stroke-linejoin="round"/>
</svg>
