<svg id="icon" width="24" height="24" viewBox="0 0 24 24" fill="none" xmlns="http://www.w3.org/2000/svg">
<path d="M15.8571 12H21M18.4286 9.5V14.5M4.28571 2H9.42857C9.76956 2 10.0966 2.1317 10.3377 2.36612C10.5788 2.60054 10.7143 2.91848 10.7143 3.25V20.75C10.7143 21.0815 10.5788 21.3995 10.3377 21.6339C10.0966 21.8683 9.76956 22 9.42857 22H4.28571C3.94472 22 3.6177 21.8683 3.37658 21.6339C3.13546 21.3995 3 21.0815 3 20.75V3.25C3 2.91848 3.13546 2.60054 3.37658 2.36612C3.6177 2.1317 3.94472 2 4.28571 2Z" stroke="currentColor" stroke-width="1.5" stroke-linecap="round" stroke-linejoin="round"/>
</svg>
