<svg id="icon" width="24" height="24" viewBox="0 0 24 24" fill="none" xmlns="http://www.w3.org/2000/svg">
<path d="M3 12H8.14286M5.57143 9.5V14.5M14.5714 2H19.7143C20.0553 2 20.3823 2.1317 20.6234 2.36612C20.8645 2.60054 21 2.91848 21 3.25V20.75C21 21.0815 20.8645 21.3995 20.6234 21.6339C20.3823 21.8683 20.0553 22 19.7143 22H14.5714C14.2304 22 13.9034 21.8683 13.6623 21.6339C13.4212 21.3995 13.2857 21.0815 13.2857 20.75V3.25C13.2857 2.91848 13.4212 2.60054 13.6623 2.36612C13.9034 2.1317 14.2304 2 14.5714 2Z" stroke="currentColor" stroke-width="1.5" stroke-linecap="round" stroke-linejoin="round"/>
</svg>
