<svg id="icon" width="24" height="24" viewBox="0 0 24 24" fill="none" xmlns="http://www.w3.org/2000/svg">
<path d="M4.89956 16.2107C4.62697 16.0553 4.40024 15.8307 4.24229 15.5596C4.08434 15.2884 4.00076 14.9804 4 14.6667V5.77778C4 4.8 4.8 4 5.77778 4H14.6667C15.3333 4 15.696 4.34222 16 4.88889M7.55556 9.92622C7.55556 9.29748 7.80532 8.69449 8.24991 8.24991C8.69449 7.80532 9.29748 7.55556 9.92622 7.55556H17.6293C17.9407 7.55556 18.2489 7.61687 18.5365 7.73601C18.8242 7.85515 19.0855 8.02977 19.3056 8.24991C19.5258 8.47004 19.7004 8.73138 19.8195 9.01901C19.9387 9.30663 20 9.6149 20 9.92622V17.6293C20 17.9407 19.9387 18.2489 19.8195 18.5365C19.7004 18.8242 19.5258 19.0855 19.3056 19.3056C19.0855 19.5258 18.8242 19.7004 18.5365 19.8195C18.2489 19.9387 17.9407 20 17.6293 20H9.92622C9.6149 20 9.30663 19.9387 9.01901 19.8195C8.73138 19.7004 8.47004 19.5258 8.24991 19.3056C8.02977 19.0855 7.85515 18.8242 7.73601 18.5365C7.61687 18.2489 7.55556 17.9407 7.55556 17.6293V9.92622Z" stroke="currentColor" stroke-width="1.5" stroke-linecap="round" stroke-linejoin="round"/>
</svg>
