<svg id="icon" width="24" height="24" viewBox="0 0 24 24" fill="none" xmlns="http://www.w3.org/2000/svg">
<path d="M12.0128 11.3409H12.0228M7.51281 3.54095C7.21281 3.04095 6.61281 2.84095 6.21281 3.14095C3.91281 4.84095 2.31281 7.44095 2.01281 10.341C1.91281 10.841 2.41281 11.341 3.01281 11.341H8.01281C8.01281 9.84095 8.81281 8.54095 10.0128 7.94095C8.91281 6.04095 8.01281 4.44095 7.51281 3.54095ZM21.0128 11.341C21.6128 11.341 22.0128 10.941 22.0128 10.341C21.7128 7.44095 20.2128 4.84095 17.9128 3.24095C17.5128 2.94095 16.8128 3.04095 16.6128 3.54095C16.0128 4.44095 15.1128 6.04095 14.0128 7.84095C15.2128 8.54095 16.0128 9.84095 16.0128 11.341H21.0128ZM7.5128 19.1409C7.2128 19.6409 7.4128 20.2409 7.9128 20.4409C10.5128 21.6409 13.5128 21.6409 16.1128 20.4409C16.6128 20.2409 16.8128 19.6409 16.5128 19.1409C16.0128 18.2409 15.1128 16.6409 14.0128 14.8409C12.8128 15.5409 11.2128 15.5409 10.0128 14.8409C8.9128 16.6409 8.0128 18.2409 7.5128 19.1409Z" stroke="currentColor" stroke-width="1.5" stroke-linecap="round" stroke-linejoin="round"/>
</svg>
