<svg id="icon" width="24" height="24" viewBox="0 0 24 24" fill="none" xmlns="http://www.w3.org/2000/svg">
<path d="M13.45 11.5956L15.5 9.54556M10 13.0456C10 13.576 10.2107 14.0847 10.5858 14.4598C10.9609 14.8348 11.4696 15.0456 12 15.0456C12.5304 15.0456 13.0391 14.8348 13.4142 14.4598C13.7893 14.0847 14 13.576 14 13.0456C14 12.5151 13.7893 12.0064 13.4142 11.6313C13.0391 11.2563 12.5304 11.0456 12 11.0456C11.4696 11.0456 10.9609 11.2563 10.5858 11.6313C10.2107 12.0064 10 12.5151 10 13.0456ZM6.4 20.0456C4.93815 18.8836 3.87391 17.2958 3.35478 15.502C2.83564 13.7083 2.88732 11.7974 3.50265 10.0344C4.11797 8.27129 5.26647 6.74327 6.78899 5.66206C8.3115 4.58085 10.1326 4 12 4C13.8674 4 15.6885 4.58085 17.211 5.66206C18.7335 6.74327 19.882 8.27129 20.4974 10.0344C21.1127 11.7974 21.1644 13.7083 20.6452 15.502C20.1261 17.2958 19.0619 18.8836 17.6 20.0456H6.4Z" stroke="currentColor" stroke-width="1.5" stroke-linecap="round" stroke-linejoin="round"/>
</svg>
