<svg id="icon" width="24" height="24" viewBox="0 0 24 24" fill="none" xmlns="http://www.w3.org/2000/svg">
<path d="M22 11.54C20.196 11.195 19.299 10.46 18.477 8.6C17.99 9.296 17.375 10.168 17.557 11C17.585 11.238 17.237 12 17 12H3C3 17.208 6.164 19 9.196 19C10.1589 19.0051 11.0989 18.9329 12 18.7729M8 9H5V12H8M8 9V12M8 9H11M8 9V6H11M8 12H11M11 9V12M11 9H14M11 9V6M11 12H14V9M14 9V6M11 6H14M11 6V3H14V6M4.571 17C6.071 17 6.618 16.926 7.529 16.22M10 15V15.01M20.2 19.2L22 21M15 17C15 17.7956 15.3161 18.5587 15.8787 19.1213C16.4413 19.6839 17.2044 20 18 20C18.7956 20 19.5587 19.6839 20.1213 19.1213C20.6839 18.5587 21 17.7956 21 17C21 16.2044 20.6839 15.4413 20.1213 14.8787C19.5587 14.3161 18.7956 14 18 14C17.2044 14 16.4413 14.3161 15.8787 14.8787C15.3161 15.4413 15 16.2044 15 17Z" stroke="currentColor" stroke-width="1.5" stroke-linecap="round" stroke-linejoin="round"/>
</svg>
