<svg id="icon" width="24" height="24" viewBox="0 0 24 24" fill="none" xmlns="http://www.w3.org/2000/svg">
<path d="M13 3V7C13 7.26522 13.1054 7.51957 13.2929 7.70711C13.4804 7.89464 13.7348 8 14 8H18M18 12V8L13 3H6C5.46957 3 4.96086 3.21071 4.58579 3.58579C4.21071 3.96086 4 4.46957 4 5V12M7 16.5C7 16.1022 6.84196 15.7206 6.56066 15.4393C6.27936 15.158 5.89782 15 5.5 15C5.10218 15 4.72064 15.158 4.43934 15.4393C4.15804 15.7206 4 16.1022 4 16.5V19.5C4 19.8978 4.15804 20.2794 4.43934 20.5607C4.72064 20.842 5.10218 21 5.5 21C5.89782 21 6.27936 20.842 6.56066 20.5607C6.84196 20.2794 7 19.8978 7 19.5M10 20.25C10 20.664 10.336 21 10.75 21H12C12.2652 21 12.5196 20.8946 12.7071 20.7071C12.8946 20.5196 13 20.2652 13 20V19C13 18.7348 12.8946 18.4804 12.7071 18.2929C12.5196 18.1054 12.2652 18 12 18H11C10.7348 18 10.4804 17.8946 10.2929 17.7071C10.1054 17.5196 10 17.2652 10 17V16C10 15.7348 10.1054 15.4804 10.2929 15.2929C10.4804 15.1054 10.7348 15 11 15H12.25C12.4489 15 12.6397 15.079 12.7803 15.2197C12.921 15.3603 13 15.5511 13 15.75M16 20.25C16 20.664 16.336 21 16.75 21H18C18.2652 21 18.5196 20.8946 18.7071 20.7071C18.8946 20.5196 19 20.2652 19 20V19C19 18.7348 18.8946 18.4804 18.7071 18.2929C18.5196 18.1054 18.2652 18 18 18H17C16.7348 18 16.4804 17.8946 16.2929 17.7071C16.1054 17.5196 16 17.2652 16 17V16C16 15.7348 16.1054 15.4804 16.2929 15.2929C16.4804 15.1054 16.7348 15 17 15H18.25C18.4489 15 18.6397 15.079 18.7803 15.2197C18.921 15.3603 19 15.5511 19 15.75" stroke="currentColor" stroke-width="1.5" stroke-linecap="round" stroke-linejoin="round"/>
</svg>
