<svg id="icon" width="24" height="24" viewBox="0 0 24 24" fill="none" xmlns="http://www.w3.org/2000/svg">
<path d="M13 3V7C13 7.26522 13.1054 7.51957 13.2929 7.70711C13.4804 7.89464 13.7348 8 14 8H18M18 12V8L13 3H6C5.46957 3 4.96086 3.21071 4.58579 3.58579C4.21071 3.96086 4 4.46957 4 5V12M1 15H4V19.5C4 19.8978 3.84196 20.2794 3.56066 20.5607C3.27936 20.842 2.89782 21 2.5 21C2.10218 21 1.72064 20.842 1.43934 20.5607C1.15804 20.2794 1 19.8978 1 19.5M7 20.25C7 20.664 7.336 21 7.75 21H9C9.26522 21 9.51957 20.8946 9.70711 20.7071C9.89464 20.5196 10 20.2652 10 20V19C10 18.7348 9.89464 18.4804 9.70711 18.2929C9.51957 18.1054 9.26522 18 9 18H8C7.73478 18 7.48043 17.8946 7.29289 17.7071C7.10536 17.5196 7 17.2652 7 17V16C7 15.7348 7.10536 15.4804 7.29289 15.2929C7.48043 15.1054 7.73478 15 8 15H9.25C9.44891 15 9.63968 15.079 9.78033 15.2197C9.92098 15.3603 10 15.5511 10 15.75M19 21V15L22 21V15M14.5 15C14.8978 15 15.2794 15.158 15.5607 15.4393C15.842 15.7206 16 16.1022 16 16.5V19.5C16 19.8978 15.842 20.2794 15.5607 20.5607C15.2794 20.842 14.8978 21 14.5 21C14.1022 21 13.7206 20.842 13.4393 20.5607C13.158 20.2794 13 19.8978 13 19.5V16.5C13 16.1022 13.158 15.7206 13.4393 15.4393C13.7206 15.158 14.1022 15 14.5 15Z" stroke="currentColor" stroke-width="1.5" stroke-linecap="round" stroke-linejoin="round"/>
</svg>
