<svg id="icon" width="24" height="24" viewBox="0 0 24 24" fill="none" xmlns="http://www.w3.org/2000/svg">
<path d="M13 2V6C13 6.26522 13.1054 6.51957 13.2929 6.70711C13.4804 6.89464 13.7348 7 14 7H18M18 11.5V7L13 2H6C5.46957 2 4.96086 2.21071 4.58579 2.58579C4.21071 2.96086 4 3.46957 4 4V18C4 18.5304 4.21071 19.0391 4.58579 19.4142C4.96086 19.7893 5.46957 20 6 20H11M17.5 18.5L20 21M13 16.5C13 17.163 13.2634 17.7989 13.7322 18.2678C14.2011 18.7366 14.837 19 15.5 19C16.163 19 16.7989 18.7366 17.2678 18.2678C17.7366 17.7989 18 17.163 18 16.5C18 15.837 17.7366 15.2011 17.2678 14.7322C16.7989 14.2634 16.163 14 15.5 14C14.837 14 14.2011 14.2634 13.7322 14.7322C13.2634 15.2011 13 15.837 13 16.5Z" stroke="currentColor" stroke-width="1.5" stroke-linecap="round" stroke-linejoin="round"/>
</svg>
