<svg id="icon" width="24" height="24" viewBox="0 0 24 24" fill="none" xmlns="http://www.w3.org/2000/svg">
<path d="M18.5 12V8L13.5 3H6.5C5.96957 3 5.46086 3.21071 5.08579 3.58579C4.71071 3.96086 4.5 4.46957 4.5 5V12M13.5 3V7C13.5 7.26522 13.6054 7.51957 13.7929 7.70711C13.9804 7.89464 14.2348 8 14.5 8H18.5M15.5 15L19.5 21M15.5 21L19.5 15M9.5 20.25C9.5 20.664 9.836 21 10.25 21H11.5C11.7652 21 12.0196 20.8946 12.2071 20.7071C12.3946 20.5196 12.5 20.2652 12.5 20V19C12.5 18.7348 12.3946 18.4804 12.2071 18.2929C12.0196 18.1054 11.7652 18 11.5 18H10.5C10.2348 18 9.98043 17.8946 9.79289 17.7071C9.60536 17.5196 9.5 17.2652 9.5 17V16C9.5 15.7348 9.60536 15.4804 9.79289 15.2929C9.98043 15.1054 10.2348 15 10.5 15H11.75C11.9489 15 12.1397 15.079 12.2803 15.2197C12.421 15.3603 12.5 15.5511 12.5 15.75M4 15H7M5.5 15V21" stroke="currentColor" stroke-width="1.5" stroke-linecap="round" stroke-linejoin="round"/>
</svg>
