<svg id="icon" width="24" height="24" viewBox="0 0 24 24" fill="none" xmlns="http://www.w3.org/2000/svg">
<path d="M13 3V7C13 7.26522 13.1054 7.51957 13.2929 7.70711C13.4804 7.89464 13.7348 8 14 8H18M18 12V8L13 3H6C5.46957 3 4.96086 3.21071 4.58579 3.58579C4.21071 3.96086 4 4.46957 4 5V12M19 16.5C19 16.1022 18.842 15.7206 18.5607 15.4393C18.2794 15.158 17.8978 15 17.5 15C17.1022 15 16.7206 15.158 16.4393 15.4393C16.158 15.7206 16 16.1022 16 16.5V19.5C16 19.8978 16.158 20.2794 16.4393 20.5607C16.7206 20.842 17.1022 21 17.5 21C17.8978 21 18.2794 20.842 18.5607 20.5607C18.842 20.2794 19 19.8978 19 19.5M4 15V21H5C5.53043 21 6.03914 20.7893 6.41421 20.4142C6.78929 20.0391 7 19.5304 7 19V17C7 16.4696 6.78929 15.9609 6.41421 15.5858C6.03914 15.2107 5.53043 15 5 15H4ZM11.5 15C11.8978 15 12.2794 15.158 12.5607 15.4393C12.842 15.7206 13 16.1022 13 16.5V19.5C13 19.8978 12.842 20.2794 12.5607 20.5607C12.2794 20.842 11.8978 21 11.5 21C11.1022 21 10.7206 20.842 10.4393 20.5607C10.158 20.2794 10 19.8978 10 19.5V16.5C10 16.1022 10.158 15.7206 10.4393 15.4393C10.7206 15.158 11.1022 15 11.5 15Z" stroke="currentColor" stroke-width="1.5" stroke-linecap="round" stroke-linejoin="round"/>
</svg>
