<svg id="icon" width="24" height="24" viewBox="0 0 24 24" fill="none" xmlns="http://www.w3.org/2000/svg">
<path d="M16 12.0116C16 13.0725 15.5786 14.0899 14.8284 14.84C14.0783 15.5902 13.0609 16.0116 12 16.0116C10.9391 16.0116 9.92172 15.5902 9.17157 14.84C8.42143 14.0899 8 13.0725 8 12.0116C8 10.9507 8.42143 9.93331 9.17157 9.18317C9.92172 8.43302 10.9391 8.0116 12 8.0116C13.0609 8.0116 14.0783 8.43302 14.8284 9.18317C15.5786 9.93331 16 10.9507 16 12.0116ZM16 12.0116L16 13.5116C16 14.1746 16.2634 14.8105 16.7322 15.2793C17.2011 15.7482 17.837 16.0116 18.5 16.0116C19.163 16.0116 19.7989 15.7482 20.2678 15.2793C20.7366 14.8105 21 14.1746 21 13.5116V12.0116C21.0025 10.0777 20.382 8.19441 19.2304 6.64076C18.0788 5.08711 16.4574 3.94572 14.6064 3.38567C12.7554 2.82561 10.7732 2.87669 8.95343 3.53133C7.13371 4.18597 5.57324 5.40935 4.50321 7.02024C3.43317 8.63114 2.91047 10.5439 3.01255 12.4751C3.11463 14.4063 3.83605 16.2532 5.06995 17.7423C6.30385 19.2314 7.98459 20.2835 9.86319 20.7427C11.7418 21.2018 13.7183 21.0436 15.5 20.2916" stroke="currentColor" stroke-width="1.5" stroke-linecap="round" stroke-linejoin="round"/>
</svg>
