<svg id="icon" width="24" height="24" viewBox="0 0 24 24" fill="none" xmlns="http://www.w3.org/2000/svg">
<path d="M20 12.0116C20 12.0116 19.9581 10.997 19.8741 10.5C19.639 9.10905 19.0788 7.78544 18.2304 6.64076C17.0788 5.08711 15.4574 3.94572 13.6064 3.38567C11.7554 2.82561 9.77316 2.87669 7.95343 3.53133C6.13371 4.18597 4.57324 5.40935 3.50321 7.02024C2.43317 8.63114 1.91047 10.5439 2.01255 12.4751C2.11463 14.4063 2.83605 16.2532 4.06995 17.7423C5.30385 19.2314 6.98459 20.2835 8.86319 20.7427C10.0609 21.0354 11.2985 21.0772 12.5 20.8741M21.2 21.2L23 23M7 12.0116C7 13.0725 7.42143 14.0899 8.17157 14.84C8.92172 15.5902 9.93913 16.0116 11 16.0116C12.0609 16.0116 13.0783 15.5902 13.8284 14.84C14.5786 14.0899 15 13.0725 15 12.0116C15 10.9507 14.5786 9.93331 13.8284 9.18317C13.0783 8.43302 12.0609 8.0116 11 8.0116C9.93913 8.0116 8.92172 8.43302 8.17157 9.18317C7.42143 9.93331 7 10.9507 7 12.0116ZM16 19C16 19.7956 16.3161 20.5587 16.8787 21.1213C17.4413 21.6839 18.2044 22 19 22C19.7956 22 20.5587 21.6839 21.1213 21.1213C21.6839 20.5587 22 19.7956 22 19C22 18.2044 21.6839 17.4413 21.1213 16.8787C20.5587 16.3161 19.7956 16 19 16C18.2044 16 17.4413 16.3161 16.8787 16.8787C16.3161 17.4413 16 18.2044 16 19Z" stroke="currentColor" stroke-width="1.5" stroke-linecap="round" stroke-linejoin="round"/>
</svg>
