<svg id="icon" width="24" height="24" viewBox="0 0 24 24" fill="none" xmlns="http://www.w3.org/2000/svg">
<path d="M8.66667 10.8889L7 12.5556L7.55561 13.1111L9.22227 11.4444M10.8889 8.66667L12.5556 7L13.1667 7.61104L11.5 9.27771M12 12L12.8333 12.8333M13.3889 14.7778C13.7572 14.7778 14.1105 14.6314 14.371 14.371C14.6314 14.1105 14.7778 13.7572 14.7778 13.3889M13.6667 17C14.5507 17 15.3986 16.6488 16.0237 16.0237C16.6488 15.3986 17 14.5507 17 13.6667M11.9871 3C14.323 5.06658 17.3716 6.14257 20.4871 6C20.9407 7.54302 21.0795 9.16147 20.8953 10.7592C20.711 12.3569 20.2075 13.9013 19.4145 15.3005C18.6216 16.6998 17.5555 17.9254 16.2796 18.9045C15.0037 19.8836 13.5439 20.5962 11.9871 21C10.4304 20.5962 8.97062 19.8836 7.69468 18.9045C6.41875 17.9254 5.35265 16.6998 4.55973 15.3005C3.76682 13.9013 3.26327 12.3569 3.07901 10.7592C2.89476 9.16147 3.03355 7.54302 3.48714 6C6.60267 6.14257 9.65131 5.06658 11.9871 3ZM7.39283 8.82943L8.8295 7.39276C8.93368 7.28861 9.07496 7.2301 9.22227 7.2301C9.36959 7.2301 9.51087 7.28861 9.61505 7.39276L12.7184 10.4961C12.8225 10.6003 12.881 10.7416 12.881 10.8889C12.881 11.0362 12.8225 11.1775 12.7184 11.2817L11.2817 12.7183C11.1775 12.8225 11.0363 12.881 10.8889 12.881C10.7416 12.881 10.6003 12.8225 10.4962 12.7183L7.39283 9.61498C7.28868 9.5108 7.23017 9.36952 7.23017 9.22221C7.23017 9.07489 7.28868 8.93361 7.39283 8.82943Z" stroke="currentColor" stroke-width="1.5" stroke-linecap="round" stroke-linejoin="round"/>
</svg>
