<svg id="icon" width="24" height="24" viewBox="0 0 24 24" fill="none" xmlns="http://www.w3.org/2000/svg">
<path d="M12 5C12 5.53043 12.2107 6.03914 12.5858 6.41421C12.9609 6.78929 13.4696 7 14 7C14.5304 7 15.0391 6.78929 15.4142 6.41421C15.7893 6.03914 16 5.53043 16 5M12 5C12 4.46957 12.2107 3.96086 12.5858 3.58579C12.9609 3.21071 13.4696 3 14 3C14.5304 3 15.0391 3.21071 15.4142 3.58579C15.7893 3.96086 16 4.46957 16 5M12 5H4M16 5H20M6 12C6 12.5304 6.21071 13.0391 6.58579 13.4142C6.96086 13.7893 7.46957 14 8 14C8.53043 14 9.03914 13.7893 9.41421 13.4142C9.78929 13.0391 10 12.5304 10 12M6 12C6 11.4696 6.21071 10.9609 6.58579 10.5858C6.96086 10.2107 7.46957 10 8 10C8.53043 10 9.03914 10.2107 9.41421 10.5858C9.78929 10.9609 10 11.4696 10 12M6 12H4M10 12H20M15 19C15 19.5304 15.2107 20.0391 15.5858 20.4142C15.9609 20.7893 16.4696 21 17 21C17.5304 21 18.0391 20.7893 18.4142 20.4142C18.7893 20.0391 19 19.5304 19 19M15 19C15 18.4696 15.2107 17.9609 15.5858 17.5858C15.9609 17.2107 16.4696 17 17 17C17.5304 17 18.0391 17.2107 18.4142 17.5858C18.7893 17.9609 19 18.4696 19 19M15 19H4M19 19H20" stroke="currentColor" stroke-width="1.5" stroke-linecap="round" stroke-linejoin="round"/>
</svg>
