<svg id="icon" width="24" height="24" viewBox="0 0 24 24" fill="none" xmlns="http://www.w3.org/2000/svg">
<path d="M2.75 2.75L20.75 20.75M11.75 4.75C11.75 5.28043 11.9607 5.78914 12.3358 6.16421C12.7109 6.53929 13.2196 6.75 13.75 6.75C14.2804 6.75 14.7891 6.53929 15.1642 6.16421C15.5393 5.78914 15.75 5.28043 15.75 4.75M11.75 4.75C11.75 4.21957 11.9607 3.71086 12.3358 3.33579C12.7109 2.96071 13.2196 2.75 13.75 2.75C14.2804 2.75 14.7891 2.96071 15.1642 3.33579C15.5393 3.71086 15.75 4.21957 15.75 4.75M11.75 4.75H3.75M15.75 4.75H19.75M5.75 11.75C5.75 12.2804 5.96071 12.7891 6.33579 13.1642C6.71086 13.5393 7.21957 13.75 7.75 13.75C8.28043 13.75 8.78914 13.5393 9.16421 13.1642C9.53929 12.7891 9.75 12.2804 9.75 11.75M5.75 11.75C5.75 11.2196 5.96071 10.7109 6.33579 10.3358C6.71086 9.96071 7.21957 9.75 7.75 9.75C8.28043 9.75 8.78914 9.96071 9.16421 10.3358C9.53929 10.7109 9.75 11.2196 9.75 11.75M5.75 11.75H3.75M9.75 11.75H19.75M14.75 18.75C14.75 19.2804 14.9607 19.7891 15.3358 20.1642C15.7109 20.5393 16.2196 20.75 16.75 20.75C17.2804 20.75 17.7891 20.5393 18.1642 20.1642C18.5393 19.7891 18.75 19.2804 18.75 18.75M14.75 18.75C14.75 18.2196 14.9607 17.7109 15.3358 17.3358C15.7109 16.9607 16.2196 16.75 16.75 16.75C17.2804 16.75 17.7891 16.9607 18.1642 17.3358C18.5393 17.7109 18.75 18.2196 18.75 18.75M14.75 18.75H3.75M18.75 18.75H19.75" stroke="currentColor" stroke-width="1.5" stroke-linecap="round" stroke-linejoin="round"/>
</svg>
