<svg id="icon" width="24" height="24" viewBox="0 0 24 24" fill="none" xmlns="http://www.w3.org/2000/svg">
<path d="M18.9121 7.02179C19.8166 8.52297 20.2031 10.2796 20.0121 12.0218V13.0218C20.011 14.0747 20.2869 15.1093 20.8121 16.0218M8.01215 11.0218C8.01215 9.96092 8.43357 8.94351 9.18372 8.19336C9.93386 7.44322 10.9513 7.02179 12.0121 7.02179C13.073 7.02179 14.0904 7.44322 14.8406 8.19336C15.5907 8.94351 16.0121 9.96092 16.0121 11.0218V12.0218C16.0121 14.1855 16.7139 16.2908 18.0121 18.0218M12.0122 11.0218V13.0218C12.009 15.8812 12.8814 18.673 14.5122 21.0218M8.01215 15.0218C8.25685 17.1116 8.86607 19.1424 9.81215 21.0218M4.91214 19.0218C4.23739 16.7521 3.93348 14.3884 4.01214 12.0218V11.0218C4.00831 9.61567 4.37517 8.23336 5.07575 7.01417C5.77633 5.79498 6.78589 4.78198 8.00269 4.07725C9.21949 3.37252 10.6005 3.00096 12.0067 3C13.4128 2.99905 14.7944 3.36874 16.0121 4.07181" stroke="currentColor" stroke-width="1.5" stroke-linecap="round" stroke-linejoin="round"/>
</svg>
