<svg id="icon" width="24" height="24" viewBox="0 0 24 24" fill="none" xmlns="http://www.w3.org/2000/svg">
<path d="M2.75 2.75L20.75 20.75M4.75 21.18V5.18M4.75 5.18C5.69 4.26 6.94 3.75 8.25 3.75C9.56 3.75 10.82 4.26 11.75 5.18C12.69 6.09 13.94 6.61 15.25 6.61C16.56 6.61 17.82 6.09 18.75 5.18V14.18C17.82 15.09 16.56 15.61 15.25 15.61C13.94 15.61 12.69 15.09 11.75 14.18C10.82 13.26 9.56 12.75 8.25 12.75C6.94 12.75 5.69 13.26 4.75 14.18" stroke="currentColor" stroke-width="1.5" stroke-linecap="round" stroke-linejoin="round"/>
</svg>
