<svg id="icon" width="24" height="24" viewBox="0 0 24 24" fill="none" xmlns="http://www.w3.org/2000/svg">
<path d="M13.0001 9.99997L20.3831 17.418C21.2061 18.238 21.2061 19.566 20.3831 20.385C19.9877 20.7782 19.4527 20.999 18.8951 20.999C18.3374 20.999 17.8025 20.7782 17.4071 20.385L10.0001 13M9.00009 5.99997L8.50009 5.49997L10.7931 3.20697C10.9806 3.0195 11.2349 2.91418 11.5001 2.91418C11.7653 2.91418 12.0196 3.0195 12.2071 3.20697L15.7931 6.79297C15.9806 6.9805 16.0859 7.23481 16.0859 7.49997C16.0859 7.76514 15.9806 8.01944 15.7931 8.20697L13.5001 10.5L13.0001 9.99997L9.00009 5.99997ZM13.0001 9.99997L10.0001 13M6.00009 8.99997L5.50009 8.49997L3.20709 10.793C3.01962 10.9805 2.91431 11.2348 2.91431 11.5C2.91431 11.7651 3.01962 12.0194 3.20709 12.207L6.79309 15.793C6.98062 15.9804 7.23493 16.0858 7.50009 16.0858C7.76526 16.0858 8.01957 15.9804 8.20709 15.793L10.5001 13.5L10.0001 13L6.00009 8.99997ZM6.00009 8.99997L9.00009 5.99997M3.00009 21H10.0001" stroke="currentColor" stroke-width="1.5" stroke-linecap="round" stroke-linejoin="round"/>
</svg>
