<svg id="icon" width="24" height="24" viewBox="0 0 24 24" fill="none" xmlns="http://www.w3.org/2000/svg">
<path d="M4.75 3.75A1 1 0 1 1 4.75 5.75A1 1 0 1 1 4.75 3.75M11.75 3.75A1 1 0 1 1 11.75 5.75A1 1 0 1 1 11.75 3.75M18.75 3.75A1 1 0 1 1 18.75 5.75A1 1 0 1 1 18.75 3.75M4.75 10.75A1 1 0 1 1 4.75 12.75A1 1 0 1 1 4.75 10.75M11.75 10.75A1 1 0 1 1 11.75 12.75A1 1 0 1 1 11.75 10.75M18.75 10.75A1 1 0 1 1 18.75 12.75A1 1 0 1 1 18.75 10.75M4.75 17.75A1 1 0 1 1 4.75 19.75A1 1 0 1 1 4.75 17.75M11.75 17.75A1 1 0 1 1 11.75 19.75A1 1 0 1 1 11.75 17.75M18.75 17.75A1 1 0 1 1 18.75 19.75A1 1 0 1 1 18.75 17.75" stroke="currentColor" stroke-width="1.5" stroke-linecap="round" stroke-linejoin="round"/>
</svg>
