<svg id="icon" width="24" height="24" viewBox="0 0 24 24" fill="none" xmlns="http://www.w3.org/2000/svg">
<path d="M19.513 12.5834L12.013 20.0114L4.513 12.5834C4.0183 12.102 3.62864 11.5234 3.36854 10.884C3.10845 10.2447 2.98356 9.55836 3.00173 8.86834C3.01991 8.17832 3.18076 7.49954 3.47415 6.87474C3.76755 6.24994 4.18713 5.69266 4.70648 5.23799C5.22583 4.78331 5.8337 4.4411 6.49181 4.23289C7.14991 4.02468 7.844 3.95499 8.53036 4.02821C9.21673 4.10143 9.8805 4.31596 10.4799 4.65831C11.0792 5.00066 11.6012 5.46341 12.013 6.01741C12.4265 5.46743 12.9491 5.00873 13.5481 4.67001C14.1471 4.3313 14.8095 4.11986 15.4939 4.04893C16.1784 3.978 16.8701 4.04911 17.5258 4.2578C18.1815 4.46649 18.787 4.80828 19.3045 5.26177C19.8221 5.71526 20.2404 6.27069 20.5334 6.8933C20.8264 7.51591 20.9877 8.19229 21.0073 8.88012C21.0269 9.56794 20.9043 10.2524 20.6471 10.8907C20.39 11.5289 20.0039 12.1072 19.513 12.5894M12.013 6.01141L8.72003 9.30441C8.53256 9.49194 8.42725 9.74625 8.42725 10.0114C8.42725 10.2766 8.53256 10.5309 8.72003 10.7184L9.26303 11.2614C9.95303 11.9514 11.073 11.9514 11.763 11.2614L12.763 10.2614C13.3598 9.66468 14.1691 9.32944 15.013 9.32944C15.8569 9.32944 16.6663 9.66468 17.263 10.2614L19.513 12.5114M12.5132 15.5114L14.5132 17.5114M15.0132 13.0114L17.0132 15.0114" stroke="currentColor" stroke-width="1.5" stroke-linecap="round" stroke-linejoin="round"/>
</svg>
