<svg id="icon" width="24" height="24" viewBox="0 0 24 24" fill="none" xmlns="http://www.w3.org/2000/svg">
<path d="M3 12C3 13.1819 3.23279 14.3522 3.68508 15.4442C4.13738 16.5361 4.80031 17.5282 5.63604 18.364C6.47177 19.1997 7.46392 19.8626 8.55585 20.3149C9.64778 20.7672 10.8181 21 12 21C13.1819 21 14.3522 20.7672 15.4442 20.3149C16.5361 19.8626 17.5282 19.1997 18.364 18.364C19.1997 17.5282 19.8626 16.5361 20.3149 15.4442C20.7672 14.3522 21 13.1819 21 12C21 10.8181 20.7672 9.64778 20.3149 8.55585C19.8626 7.46392 19.1997 6.47177 18.364 5.63604C17.5282 4.80031 16.5361 4.13738 15.4442 3.68508C14.3522 3.23279 13.1819 3 12 3C10.8181 3 9.64778 3.23279 8.55585 3.68508C7.46392 4.13738 6.47177 4.80031 5.63604 5.63604C4.80031 6.47177 4.13738 7.46392 3.68508 8.55585C3.23279 9.64778 3 10.8181 3 12ZM12 11.75A0.25 0.25 0 0 1 12 12.25M12 11.25A0.75 0.75 0 0 1 12 12.75M12 10.75A1.25 1.25 0 0 1 12 13.25M12 10.25A1.75 1.75 0 0 1 12 13.75M12 9.75A2.25 2.25 0 0 1 12 14.25M12 9.25A2.75 2.75 0 0 1 12 14.75M12 8.75A3.25 3.25 0 0 1 12 15.25M12 8.25A3.75 3.75 0 0 1 12 15.75M12 7.75A4.25 4.25 0 0 1 12 16.25" stroke="currentColor" stroke-width="1.5" stroke-linecap="round" stroke-linejoin="round"/>
</svg>
