<svg id="icon" width="24" height="24" viewBox="0 0 24 24" fill="none" xmlns="http://www.w3.org/2000/svg">
<path d="M9.876 20.554C9.0056 20.3566 8.16967 20.03 7.396 19.585M13.876 3C15.8641 3.45407 17.6392 4.56969 18.9106 6.16421C20.182 7.75872 20.8744 9.73765 20.8744 11.777C20.8744 13.8163 20.182 15.7953 18.9106 17.3898C17.6392 18.9843 15.8641 20.0999 13.876 20.554M4.45497 16.87C3.90947 16.0775 3.49517 15.2023 3.22797 14.278M3 10.277C3.16 9.327 3.468 8.427 3.9 7.602L4.069 7.297M6.78296 4.356C7.71861 3.7119 8.76828 3.25172 9.87596 3M11.876 7.77701V11.777L14.876 14.777" stroke="currentColor" stroke-width="1.5" stroke-linecap="round" stroke-linejoin="round"/>
</svg>
