<svg id="icon" width="24" height="24" viewBox="0 0 24 24" fill="none" xmlns="http://www.w3.org/2000/svg">
<path d="M9.876 20.554C9.00561 20.3565 8.16968 20.0299 7.396 19.585M13.876 3C15.8642 3.45407 17.6393 4.56969 18.9107 6.16421C20.1821 7.75872 20.8744 9.73765 20.8744 11.777C20.8744 13.8163 20.1821 15.7953 18.9107 17.3898C17.6393 18.9843 15.8642 20.0999 13.876 20.554M4.45501 16.87C3.90952 16.0774 3.49521 15.2022 3.22801 14.278M3 10.277C3.16 9.327 3.468 8.427 3.9 7.602L4.069 7.297M6.783 4.356C7.71866 3.7119 8.76833 3.25172 9.876 3M15 12H15.01M12 12H12.01M9 12H9.01" stroke="currentColor" stroke-width="1.5" stroke-linecap="round" stroke-linejoin="round"/>
</svg>
