<svg id="icon" width="24" height="24" viewBox="0 0 24 24" fill="none" xmlns="http://www.w3.org/2000/svg">
<path d="M13.9827 15L18.0527 19.284C18.3954 19.6447 18.8459 19.8844 19.3365 19.9674C19.8271 20.0503 20.3313 19.9719 20.7736 19.744C21.2159 19.516 21.5723 19.1508 21.7894 18.7031C22.0065 18.2554 22.0725 17.7494 21.9777 17.261L20.3777 9.02899M7.98267 9V11M6.98267 10H8.98267M13.9827 10H15.9827M15.4827 5C16.8087 5 18.0805 5.52678 19.0182 6.46447C19.9559 7.40215 20.4827 8.67392 20.4827 10C20.4827 11.3261 19.9559 12.5979 19.0182 13.5355C18.0805 14.4732 16.8087 15 15.4827 15H9.98266L5.96766 19.227C5.62422 19.5886 5.17256 19.8288 4.68075 19.9113C4.18893 19.9939 3.6836 19.9143 3.24092 19.6847C2.79824 19.4551 2.44219 19.0878 2.22642 18.6382C2.01066 18.1886 1.94686 17.681 2.04466 17.192L3.67866 9.019C3.90547 7.88546 4.51805 6.86553 5.41216 6.13278C6.30627 5.40003 7.42666 4.99973 8.58266 5H15.4827Z" stroke="currentColor" stroke-width="1.5" stroke-linecap="round" stroke-linejoin="round"/>
</svg>
