<svg id="icon" width="24" height="24" viewBox="0 0 24 24" fill="none" xmlns="http://www.w3.org/2000/svg">
<path d="M14.6667 6.66667V17.3333C14.6667 17.8607 14.8231 18.3763 15.1161 18.8149C15.4091 19.2534 15.8256 19.5952 16.3128 19.797C16.8001 19.9988 17.3363 20.0517 17.8536 19.9488C18.3709 19.8459 18.846 19.5919 19.219 19.219C19.5919 18.846 19.8459 18.3709 19.9488 17.8536C20.0517 17.3363 19.9988 16.8001 19.797 16.3128C19.5952 15.8256 19.2534 15.4091 18.8149 15.1161C18.3763 14.8231 17.8607 14.6667 17.3333 14.6667H6.66667C6.13925 14.6667 5.62368 14.8231 5.18515 15.1161C4.74662 15.4091 4.40482 15.8256 4.20299 16.3128C4.00116 16.8001 3.94835 17.3363 4.05124 17.8536C4.15413 18.3709 4.40811 18.846 4.78105 19.219C5.15399 19.5919 5.62914 19.8459 6.14643 19.9488C6.66371 20.0517 7.19989 19.9988 7.68716 19.797C8.17443 19.5952 8.5909 19.2534 8.88392 18.8149C9.17694 18.3763 9.33333 17.8607 9.33333 17.3333V6.66667C9.33333 6.13925 9.17694 5.62368 8.88392 5.18515C8.5909 4.74662 8.17443 4.40482 7.68716 4.20299C7.19989 4.00116 6.66371 3.94835 6.14643 4.05124C5.62914 4.15413 5.15399 4.40811 4.78105 4.78105C4.40811 5.15399 4.15413 5.62914 4.05124 6.14643C3.94835 6.66371 4.00116 7.19989 4.20299 7.68716C4.40482 8.17443 4.74662 8.5909 5.18515 8.88392C5.62368 9.17694 6.13925 9.33333 6.66667 9.33333H17.3333C17.8607 9.33333 18.3763 9.17694 18.8149 8.88392C19.2534 8.5909 19.5952 8.17443 19.797 7.68716C19.9988 7.19989 20.0517 6.66371 19.9488 6.14643C19.8459 5.62914 19.5919 5.15399 19.219 4.78105C18.846 4.40811 18.3709 4.15413 17.8536 4.05124C17.3363 3.94835 16.8001 4.00116 16.3128 4.20299C15.8256 4.40482 15.4091 4.74662 15.1161 5.18515C14.8231 5.62368 14.6667 6.13925 14.6667 6.66667Z" stroke="currentColor" stroke-width="1.5" stroke-linecap="round" stroke-linejoin="round"/>
</svg>
