<svg id="icon" width="24" height="24" viewBox="0 0 24 24" fill="none" xmlns="http://www.w3.org/2000/svg">
<path d="M17 7.00006C17.788 8.00006 18 9.00006 18 10.0001V11.0001M9 10.0001C9 8.42206 10.343 7.00006 12 7.00006C13.657 7.00006 15 8.42206 15 10.0001V12.0001M12 10.0001V12.0001M6.00002 11V9.60304C5.99402 7.60404 7.13602 5.75404 8.99302 4.75304C9.91705 4.25949 10.9483 4.00087 11.9959 4C13.0435 3.99913 14.0752 4.25603 15 4.74804M12 16.0001V20.0001M10 19.0001L14 17.0001M10 17.0001L14 19.0001M5 16.0001V20.0001M3 19.0001L7 17.0001M3 17.0001L7 19.0001M19 16.0001V20.0001M17 19.0001L21 17.0001M17 17.0001L21 19.0001" stroke="currentColor" stroke-width="1.5" stroke-linecap="round" stroke-linejoin="round"/>
</svg>
