<svg id="icon" width="24" height="24" viewBox="0 0 24 24" fill="none" xmlns="http://www.w3.org/2000/svg">
<path d="M9.18138 6.11746C7.88739 5.85759 6.54381 6.03164 5.35875 6.61264C4.17368 7.19364 3.21325 8.14918 2.6262 9.33126C2.03915 10.5133 1.85825 11.856 2.1115 13.1513C2.36476 14.4466 3.03804 15.6223 4.02708 16.4962C5.01612 17.3701 6.26572 17.8936 7.58234 17.9855C8.89897 18.0773 10.2092 17.7325 11.31 17.0044C12.4108 16.2763 13.2408 15.2056 13.6715 13.958C14.1022 12.7104 14.1096 11.3556 13.6924 10.1035M14.8114 17.8835C16.1068 18.1447 17.4521 17.9709 18.6386 17.3892C19.8251 16.8075 20.7864 15.8503 21.3732 14.6664C21.96 13.4824 22.1396 12.1378 21.884 10.8413C21.6284 9.54482 20.952 8.36899 19.9597 7.49632C18.9674 6.62366 17.7148 6.10298 16.3963 6.01511C15.0778 5.92725 13.7671 6.27712 12.6678 7.0104C11.5685 7.74368 10.742 8.81936 10.3167 10.0705C9.8913 11.3216 9.89085 12.6781 10.3154 13.9295" stroke="currentColor" stroke-width="1.5" stroke-linecap="round" stroke-linejoin="round"/>
</svg>
