<svg id="icon" width="24" height="24" viewBox="0 0 24 24" fill="none" xmlns="http://www.w3.org/2000/svg">
<path d="M15 11.001H17C17.5304 11.001 18.0391 11.2117 18.4142 11.5868C18.7893 11.9618 19 12.4705 19 13.001V15.001M19 19.001C19 19.5314 18.7893 20.0401 18.4142 20.4152C18.0391 20.7903 17.5304 21.001 17 21.001H7C6.46957 21.001 5.96086 20.7903 5.58579 20.4152C5.21071 20.0401 5 19.5314 5 19.001V13.001C5 12.4705 5.21071 11.9618 5.58579 11.5868C5.96086 11.2117 6.46957 11.001 7 11.001H11M8 11.001V8.00098M8.719 4.71198C9.20602 4.0136 9.90317 3.48884 10.709 3.21405C11.5149 2.93926 12.3874 2.92878 13.1996 3.18413C14.0119 3.43948 14.7214 3.94733 15.2251 4.63381C15.7287 5.32028 16.0002 6.14956 16 7.00098V11.001M3 3.00098L21 21.001M11 16.001C11 16.2662 11.1054 16.5205 11.2929 16.7081C11.4804 16.8956 11.7348 17.001 12 17.001C12.2652 17.001 12.5196 16.8956 12.7071 16.7081C12.8946 16.5205 13 16.2662 13 16.001C13 15.7358 12.8946 15.4814 12.7071 15.2939C12.5196 15.1063 12.2652 15.001 12 15.001C11.7348 15.001 11.4804 15.1063 11.2929 15.2939C11.1054 15.4814 11 15.7358 11 16.001Z" stroke="currentColor" stroke-width="1.5" stroke-linecap="round" stroke-linejoin="round"/>
</svg>
