<svg id="icon" width="24" height="24" viewBox="0 0 24 24" fill="none" xmlns="http://www.w3.org/2000/svg">
<path d="M11.974 16C11.1783 16 10.4153 15.6839 9.85268 15.1213C9.29007 14.5587 8.974 13.7956 8.974 13C8.974 12.2044 9.29007 11.4413 9.85268 10.8787C10.4153 10.3161 11.1783 10 11.974 10M11.974 16C12.7696 16 13.5327 15.6839 14.0953 15.1213C14.6579 14.5587 14.974 13.7956 14.974 13C14.974 12.2044 14.6579 11.4413 14.0953 10.8787C13.5327 10.3161 12.7696 10 11.974 10M11.974 16V19M11.974 10V3M11.974 19C12.2392 19 12.4936 19.1054 12.6811 19.2929C12.8686 19.4804 12.974 19.7348 12.974 20C12.974 20.2652 12.8686 20.5196 12.6811 20.7071C12.4936 20.8946 12.2392 21 11.974 21C11.7088 21 11.4544 20.8946 11.2669 20.7071C11.0794 20.5196 10.974 20.2652 10.974 20C10.974 19.7348 11.0794 19.4804 11.2669 19.2929C11.4544 19.1054 11.7088 19 11.974 19ZM14.974 6L11.974 3L8.974 6M14.868 12.227L20.978 10.003M19.185 13.848L20.978 10.003L17.133 8.21M9.075 12.214L3 10.003M4.793 13.848L3 10.003L6.845 8.21" stroke="currentColor" stroke-width="1.5" stroke-linecap="round" stroke-linejoin="round"/>
</svg>
