<svg id="icon" width="24" height="24" viewBox="0 0 24 24" fill="none" xmlns="http://www.w3.org/2000/svg">
<path d="M21 11C21 9.21997 20.4722 7.47991 19.4832 5.99987C18.4943 4.51983 17.0887 3.36628 15.4442 2.68509C13.7996 2.0039 11.99 1.82567 10.2442 2.17294C8.49836 2.5202 6.89472 3.37737 5.63604 4.63604C4.37737 5.89472 3.5202 7.49836 3.17294 9.24419C2.82567 10.99 3.0039 12.7996 3.68509 14.4442C4.36628 16.0887 5.51983 17.4943 6.99987 18.4832C8.47991 19.4722 10.22 20 12 20M3.60001 8.00001H20.4M3.60001 14H11.5M11.5 2.00001C9.81535 4.69962 8.92221 7.81787 8.92221 11C8.92221 14.1821 9.81535 17.3004 11.5 20M12.5 2.00001C14.1172 4.58974 15.0064 7.56754 15.074 10.62M20.2 19.2L22 21M15 17C15 17.7957 15.3161 18.5587 15.8787 19.1213C16.4413 19.6839 17.2044 20 18 20C18.7956 20 19.5587 19.6839 20.1213 19.1213C20.6839 18.5587 21 17.7957 21 17C21 16.2044 20.6839 15.4413 20.1213 14.8787C19.5587 14.3161 18.7956 14 18 14C17.2044 14 16.4413 14.3161 15.8787 14.8787C15.3161 15.4413 15 16.2044 15 17Z" stroke="currentColor" stroke-width="1.5" stroke-linecap="round" stroke-linejoin="round"/>
</svg>
