<svg id="icon" width="24" height="24" viewBox="0 0 24 24" fill="none" xmlns="http://www.w3.org/2000/svg">
<path d="M17 18C17.5304 18 18.0391 18.2107 18.4142 18.5858C18.7893 18.9609 19 19.4696 19 20C19 19.4696 19.2107 18.9609 19.5858 18.5858C19.9609 18.2107 20.4696 18 21 18C20.4696 18 19.9609 17.7893 19.5858 17.4142C19.2107 17.0391 19 16.5304 19 16C19 16.5304 18.7893 17.0391 18.4142 17.4142C18.0391 17.7893 17.5304 18 17 18ZM17 6C17.5304 6 18.0391 6.21071 18.4142 6.58579C18.7893 6.96086 19 7.46957 19 8C19 7.46957 19.2107 6.96086 19.5858 6.58579C19.9609 6.21071 20.4696 6 21 6C20.4696 6 19.9609 5.78929 19.5858 5.41421C19.2107 5.03914 19 4.53043 19 4C19 4.53043 18.7893 5.03914 18.4142 5.41421C18.0391 5.78929 17.5304 6 17 6ZM10 18C10 16.4087 10.6321 14.8826 11.7574 13.7574C12.8826 12.6321 14.4087 12 16 12C14.4087 12 12.8826 11.3679 11.7574 10.2426C10.6321 9.11742 10 7.5913 10 6C10 7.5913 9.36786 9.11742 8.24264 10.2426C7.11742 11.3679 5.5913 12 4 12C5.5913 12 7.11742 12.6321 8.24264 13.7574C9.36786 14.8826 10 16.4087 10 18Z" stroke="currentColor" stroke-width="1.5" stroke-linecap="round" stroke-linejoin="round"/>
</svg>
