<svg id="icon" width="24" height="24" viewBox="0 0 24 24" fill="none" xmlns="http://www.w3.org/2000/svg">
<path d="M18.9978 11.008H20.9978M19.9978 10.008V12.008M11.9978 3.008C12.1298 3.008 12.2608 3.008 12.3908 3.008C11.1062 4.20171 10.2804 5.80784 10.0571 7.54722C9.83382 9.2866 10.2271 11.0492 11.1686 12.5287C12.11 14.0082 13.5402 15.111 15.2104 15.6455C16.8807 16.1799 18.6854 16.1121 20.3108 15.454C19.6856 16.9585 18.6636 18.265 17.354 19.2343C16.0444 20.2035 14.4963 20.799 12.8747 20.9574C11.2532 21.1157 9.61909 20.831 8.14672 20.1334C6.67435 19.4358 5.41894 18.3517 4.51442 16.9966C3.60989 15.6415 3.09018 14.0663 3.01071 12.439C2.93125 10.8117 3.29501 9.1933 4.0632 7.75651C4.83139 6.31973 5.97519 5.11842 7.37259 4.28073C8.76999 3.44304 10.3686 3.00039 11.9978 3V3.008ZM16.9978 4.008C16.9978 4.53843 17.2085 5.04714 17.5836 5.42221C17.9587 5.79728 18.4674 6.008 18.9978 6.008C18.4674 6.008 17.9587 6.21871 17.5836 6.59378C17.2085 6.96885 16.9978 7.47756 16.9978 8.008C16.9978 7.47756 16.7871 6.96885 16.412 6.59378C16.0369 6.21871 15.5282 6.008 14.9978 6.008C15.5282 6.008 16.0369 5.79728 16.412 5.42221C16.7871 5.04714 16.9978 4.53843 16.9978 4.008Z" stroke="currentColor" stroke-width="1.5" stroke-linecap="round" stroke-linejoin="round"/>
</svg>
