<svg id="icon" width="24" height="24" viewBox="0 0 24 24" fill="none" xmlns="http://www.w3.org/2000/svg">
<path d="M13.9497 11.9497V11.9597M9.94971 11.9497V11.9597M11.9497 9.94974V9.95974M11.9497 13.9497V13.9597M4.44975 12.4497L12.4497 4.44975C13.378 3.52149 14.637 3 15.9497 3C17.2625 3 18.5215 3.52149 19.4497 4.44975C20.378 5.37801 20.8995 6.63699 20.8995 7.94975C20.8995 9.2625 20.378 10.5215 19.4497 11.4497L11.4497 19.4497C10.5215 20.378 9.2625 20.8995 7.94975 20.8995C6.63699 20.8995 5.37801 20.378 4.44975 19.4497C3.52149 18.5215 3 17.2625 3 15.9497C3 14.637 3.52149 13.378 4.44975 12.4497Z" stroke="currentColor" stroke-width="1.5" stroke-linecap="round" stroke-linejoin="round"/>
</svg>
