<svg id="icon" width="24" height="24" viewBox="0 0 24 24" fill="none" xmlns="http://www.w3.org/2000/svg">
<path d="M7.38609 8C7.38609 4.68629 9.51273 2 12.1361 2C14.7594 2 16.8861 4.68629 16.8861 8M7.38609 8H16.8861M7.38609 8V17H16.8861V8M9.38609 11.5H11.3861M9.38609 13.5H11.3861M14.9861 22H9.28608L10.4261 17H13.8461L14.9861 22ZM11.1861 4.5C11.1861 4.77614 10.9734 5 10.7111 5C10.4487 5 10.2361 4.77614 10.2361 4.5C10.2361 4.22386 10.4487 4 10.7111 4C10.9734 4 11.1861 4.22386 11.1861 4.5ZM13.8861 14C13.6099 14 13.3861 13.7761 13.3861 13.5V11.5C13.3861 11.2239 13.6099 11 13.8861 11C14.1622 11 14.3861 11.2239 14.3861 11.5V13.5C14.3861 13.7761 14.1622 14 13.8861 14ZM4.16056 22.2132C3.44022 22.1289 2.92467 21.4765 3.00904 20.7562L4.23331 10.3043C4.31768 9.58395 4.97004 9.0684 5.69038 9.15278C6.41072 9.23715 6.92627 9.88951 6.84189 10.6098L5.61763 21.0617C5.53325 21.7821 4.8809 22.2976 4.16056 22.2132ZM20.2203 22.2132C20.9406 22.1289 21.4561 21.4765 21.3718 20.7562L20.1475 10.3043C20.0631 9.58395 19.4108 9.0684 18.6904 9.15278C17.9701 9.23715 17.4545 9.88951 17.5389 10.6098L18.7632 21.0617C18.8476 21.7821 19.4999 22.2976 20.2203 22.2132Z" stroke="currentColor" stroke-width="1.5" stroke-linecap="round" stroke-linejoin="round"/>
</svg>
