<svg id="icon" width="24" height="24" viewBox="0 0 24 24" fill="none" xmlns="http://www.w3.org/2000/svg">
<path d="M16 3V7C16 7.26522 16.1054 7.51957 16.2929 7.70711C16.4804 7.89464 16.7348 8 17 8H21M7 12V19C7 19.5304 7.21071 20.0391 7.58579 20.4142C7.96086 20.7893 8.46957 21 9 21H19C19.5304 21 20.0391 20.7893 20.4142 20.4142C20.7893 20.0391 21 19.5304 21 19V8L16 3H9C8.46957 3 7.96086 3.21071 7.58579 3.58579C7.21071 3.96086 7 4.46957 7 5V8M10 15L7 12L4 15" stroke="currentColor" stroke-width="1.5" stroke-linecap="round" stroke-linejoin="round"/>
</svg>
