<svg id="icon" width="24" height="24" viewBox="0 0 24 24" fill="none" xmlns="http://www.w3.org/2000/svg">
<path d="M12 3V5M9 13V22M15 13V22M5 17L9 15M15 15L19 17M9 19H15M10 9V9.01M14 9V9.01M6 7C6 6.46957 6.21071 5.96086 6.58579 5.58579C6.96086 5.21071 7.46957 5 8 5H16C16.5304 5 17.0391 5.21071 17.4142 5.58579C17.7893 5.96086 18 6.46957 18 7V11C18 11.5304 17.7893 12.0391 17.4142 12.4142C17.0391 12.7893 16.5304 13 16 13H8C7.46957 13 6.96086 12.7893 6.58579 12.4142C6.21071 12.0391 6 11.5304 6 11V7Z" stroke="currentColor" stroke-width="1.5" stroke-linecap="round" stroke-linejoin="round"/>
</svg>
