<svg id="icon" width="24" height="24" viewBox="0 0 24 24" fill="none" xmlns="http://www.w3.org/2000/svg">
<path d="M12 1C20.8 1 23 3.2 23 12C23 20.8 20.8 23 12 23C3.2 23 1 20.8 1 12C1 3.2 3.2 1 12 1ZM15.6667 9.28395V16.8889L12 14.7161L8.33333 16.8889V9.28395C8.33333 8.70768 8.59087 8.15501 9.0493 7.74753C9.50771 7.34003 10.1295 7.11111 10.7777 7.11111H13.2223C13.8705 7.11111 14.4923 7.34003 14.9507 7.74753C15.4092 8.15501 15.6667 8.70768 15.6667 9.28395Z" stroke="currentColor" stroke-width="1.5" stroke-linecap="round" stroke-linejoin="round"/>
</svg>
