<svg id="icon" width="24" height="24" viewBox="0 0 24 24" fill="none" xmlns="http://www.w3.org/2000/svg">
<path d="M6.64722 12.5L4.03407 20.2291C3.99766 20.3317 3.99027 20.4424 4.01269 20.5489C4.03512 20.6554 4.08649 20.7536 4.16112 20.8327C4.23363 20.9096 4.32729 20.9633 4.43022 20.9867C4.53315 21.0102 4.64071 21.0024 4.73924 20.9644L22 12.5L4.73924 4.03558C4.64071 3.99758 4.53315 3.98981 4.43022 4.01327C4.32729 4.03673 4.23363 4.09036 4.16112 4.16734C4.08649 4.24636 4.03512 4.34458 4.01269 4.4511C3.99027 4.55763 3.99766 4.66831 4.03407 4.77087L6.64722 12.5ZM22 12.5H6.64722" stroke="currentColor" stroke-width="1.5" stroke-linecap="round" stroke-linejoin="round"/>
</svg>
