<svg id="icon" width="24" height="24" viewBox="0 0 24 24" fill="none" xmlns="http://www.w3.org/2000/svg">
<path d="M12 3.98856C14.0793 5.82814 16.793 6.78595 19.5664 6.65904C19.9701 8.03257 20.0937 9.47325 19.9297 10.8955C19.7656 12.3177 19.3174 13.6924 18.6116 14.938C17.9058 16.1836 16.9568 17.2745 15.821 18.1461C14.6852 19.0177 13.3858 19.652 12 20.0115C10.6142 19.652 9.31481 19.0177 8.17902 18.1461C7.04324 17.2745 6.09424 16.1836 5.38841 14.938C4.68259 13.6924 4.23436 12.3177 4.07034 10.8955C3.90632 9.47325 4.02986 8.03257 4.43363 6.65904C7.20695 6.78595 9.92073 5.82814 12 3.98856Z" stroke="currentColor" stroke-width="1.5" stroke-linecap="round" stroke-linejoin="round"/>
</svg>
