<svg id="icon" width="24" height="24" viewBox="0 0 24 24" fill="none" xmlns="http://www.w3.org/2000/svg">
<path d="M17.6701 17.667C16.1274 19.2844 14.1636 20.4387 12.0001 21C10.4433 20.5962 8.98356 19.8836 7.70762 18.9045C6.43169 17.9254 5.36559 16.6998 4.57267 15.3005C3.77976 13.9013 3.27621 12.3569 3.09195 10.7592C2.9077 9.16147 3.04649 7.54302 3.50008 6C4.29408 6.036 5.08308 5.994 5.85708 5.876M8.98508 4.95C10.0822 4.45493 11.0986 3.79757 12.0001 3C14.3359 5.06658 17.3846 6.14257 20.5001 6C20.9578 7.55707 21.0948 9.19081 20.903 10.8024C20.7112 12.4139 20.1945 13.9699 19.3841 15.376M3 3L21 21" stroke="currentColor" stroke-width="1.5" stroke-linecap="round" stroke-linejoin="round"/>
</svg>
