<svg id="icon" width="24" height="24" viewBox="0 0 24 24" fill="none" xmlns="http://www.w3.org/2000/svg">
<path d="M3.20887 11.3941L5.97808 8.62449C6.1116 8.49097 6.29269 8.41597 6.48151 8.41597C6.67033 8.41597 6.85142 8.49097 6.98494 8.62449L9.7545 11.3941C9.88801 11.5276 9.96302 11.7087 9.96302 11.8975C9.96302 12.0863 9.88801 12.2674 9.7545 12.4009L6.98494 15.1705C6.85142 15.304 6.67033 15.379 6.48151 15.379C6.29269 15.379 6.1116 15.304 5.97808 15.1705L3.20852 12.4009C3.07501 12.2674 3 12.0863 3 11.8975C3 11.7087 3.07535 11.5276 3.20887 11.3941ZM8.62484 16.81L11.3941 14.0404C11.5276 13.9069 11.7087 13.8319 11.8975 13.8319C12.0863 13.8319 12.2674 13.9069 12.4009 14.0404L15.1705 16.81C15.304 16.9435 15.379 17.1246 15.379 17.3134C15.379 17.5023 15.304 17.6833 15.1705 17.8169L12.4009 20.5864C12.2674 20.7199 12.0863 20.7949 11.8975 20.7949C11.7087 20.7949 11.5276 20.7199 11.3941 20.5864L8.62449 17.8169C8.49098 17.6833 8.41597 17.5023 8.41597 17.3134C8.41597 17.1246 8.49132 16.9435 8.62484 16.81ZM8.62484 5.97808L11.3941 3.20852C11.5276 3.07501 11.7087 3 11.8975 3C12.0863 3 12.2674 3.07501 12.4009 3.20852L15.1705 5.97808C15.304 6.1116 15.379 6.29269 15.379 6.48151C15.379 6.67033 15.304 6.85142 15.1705 6.98494L12.4009 9.7545C12.2674 9.88801 12.0863 9.96302 11.8975 9.96302C11.7087 9.96302 11.5276 9.88801 11.3941 9.7545L8.62449 6.98494C8.49098 6.85142 8.41597 6.67033 8.41597 6.48151C8.41597 6.29269 8.49132 6.1116 8.62484 5.97808ZM14.0408 11.394L16.81 8.62448C16.9435 8.49097 17.1246 8.41596 17.3134 8.41596C17.5023 8.41596 17.6833 8.49097 17.8169 8.62448L20.5864 11.394C20.7199 11.5276 20.7949 11.7087 20.7949 11.8975C20.7949 12.0863 20.7199 12.2674 20.5864 12.4009L17.8169 15.1705C17.6833 15.304 17.5023 15.379 17.3134 15.379C17.1246 15.379 16.9435 15.304 16.81 15.1705L14.0404 12.4009C13.9069 12.2674 13.8319 12.0863 13.8319 11.8975C13.8319 11.7087 13.9073 11.5276 14.0408 11.394Z" stroke="currentColor" stroke-width="1.5" stroke-linecap="round" stroke-linejoin="round"/>
</svg>
