<svg id="icon" width="24" height="24" viewBox="0 0 24 24" fill="none" xmlns="http://www.w3.org/2000/svg">
<path d="M12.5067 17.9473L6.63504 21.0343L7.75666 14.4958L3 9.86571L9.56419 8.91438L12.5 2.9657L15.4358 8.91438L22 9.86571L17.2433 14.4958L18.365 21.0343L12.5067 17.9473ZM12.34 5H12.66M12.09 5.5H12.91M11.84 6H13.16M11.6 6.5H13.4M11.35 7H13.65M11.1 7.5H13.9M10.86 8H14.14M10.61 8.5H14.39M10.36 9H14.64M10.04 9.5H14.96M7.31 10H17.69M4.73 10.5H20.27M5.25 11H19.75M5.76 11.5H19.24M6.27 12H18.73M6.79 12.5H18.21M7.3 13H17.7M7.81 13.5H17.19M8.32 14H16.68M8.51 14.5H16.49M8.44 15H16.56M8.35 15.5H16.65M8.26 16H16.74M8.18 16.5H16.82M8.09 17H16.91M8.01 17.5H11.74M13.27 17.5H16.99M7.92 18H10.79M14.22 18H17.08M7.84 18.5H9.84M15.17 18.5H17.16M7.75 19H8.89M16.12 19H17.25M7.66 19.5H7.94M17.07 19.5H17.34" stroke="currentColor" stroke-width="1.5" stroke-linecap="round" stroke-linejoin="round"/>
</svg>
