<svg id="icon" width="24" height="24" viewBox="0 0 24 24" fill="none" xmlns="http://www.w3.org/2000/svg">
<path d="M5 19H19C21.2091 19 23 17.2091 23 15V8C23 5.79086 21.2091 4 19 4H5C2.79086 4 1 5.79086 1 8V15C1 17.2091 2.79086 19 5 19ZM13 16H18C19.1046 16 20 15.1046 20 14V9C20 7.89543 19.1046 7 18 7H13C11.8954 7 11 7.89543 11 9V14C11 15.1046 11.8954 16 13 16ZM3.47 4.75H20.53M2.9 5.25H21.1M2.49 5.75H21.51M2.2 6.25H21.8M2 6.75H22M1.87 7.25H11.18M19.82 7.25H22.13M1.81 7.75H10.59M20.41 7.75H22.19M1.8 8.25H10.3M20.7 8.25H22.2M1.8 8.75H10.17M20.83 8.75H22.2M1.8 9.25H10.15M20.85 9.25H22.2M1.8 9.75H10.15M20.85 9.75H22.2M1.8 10.25H10.15M20.85 10.25H22.2M1.8 10.75H10.15M20.85 10.75H22.2M1.8 11.25H10.15M20.85 11.25H22.2M1.8 11.75H10.15M20.85 11.75H22.2M1.8 12.25H10.15M20.85 12.25H22.2M1.8 12.75H10.15M20.85 12.75H22.2M1.8 13.25H10.15M20.85 13.25H22.2M1.8 13.75H10.15M20.85 13.75H22.2M1.8 14.25H10.17M20.83 14.25H22.2M1.8 14.75H10.3M20.7 14.75H22.2M1.81 15.25H10.59M20.41 15.25H22.19M1.87 15.75H11.18M19.82 15.75H22.13M2 16.25H22M2.2 16.75H21.8M2.49 17.25H21.51M2.9 17.75H21.1M3.47 18.25H20.53" stroke="currentColor" stroke-width="1.5" stroke-linecap="round" stroke-linejoin="round"/>
</svg>
