<svg id="icon" width="24" height="24" viewBox="0 0 24 24" fill="none" xmlns="http://www.w3.org/2000/svg">
<path d="M18 18L19.592 16.408C20.4958 15.5041 21.0035 14.2782 21.0035 13C21.0035 11.7218 20.4958 10.4959 19.592 9.592L15 5M7.00023 9H6.99023M3 7V11.172C3.00011 11.7024 3.2109 12.211 3.586 12.586L9.296 18.296C9.74795 18.7479 10.3609 19.0017 11 19.0017C11.6391 19.0017 12.252 18.7479 12.704 18.296L16.296 14.704C16.7479 14.252 17.0017 13.6391 17.0017 13C17.0017 12.3609 16.7479 11.748 16.296 11.296L10.586 5.586C10.211 5.2109 9.70239 5.00011 9.172 5H5C4.46957 5 3.96086 5.21071 3.58579 5.58579C3.21071 5.96086 3 6.46957 3 7Z" stroke="currentColor" stroke-width="1.5" stroke-linecap="round" stroke-linejoin="round"/>
</svg>
