<svg id="icon" width="24" height="24" viewBox="0 0 24 24" fill="none" xmlns="http://www.w3.org/2000/svg">
<path d="M8 13.0048V5.00482C8 4.7396 7.89464 4.48525 7.70711 4.29771C7.51957 4.11017 7.26522 4.00482 7 4.00482H5C4.73478 4.00482 4.48043 4.11017 4.29289 4.29771C4.10536 4.48525 4 4.7396 4 5.00482V12.0048C4 12.27 4.10536 12.5244 4.29289 12.7119C4.48043 12.8995 4.73478 13.0048 5 13.0048H8ZM8 13.0048C9.06087 13.0048 10.0783 13.4262 10.8284 14.1764C11.5786 14.9265 12 15.9439 12 17.0048V18.0048C12 18.5352 12.2107 19.044 12.5858 19.419C12.9609 19.7941 13.4696 20.0048 14 20.0048C14.5304 20.0048 15.0391 19.7941 15.4142 19.419C15.7893 19.044 16 18.5352 16 18.0048V13.0048H19C19.5304 13.0048 20.0391 12.7941 20.4142 12.419C20.7893 12.044 21 11.5352 21 11.0048L20 6.00482C19.8562 5.39134 19.5834 4.86457 19.2227 4.50385C18.8619 4.14313 18.4328 3.96799 18 4.00482H11C10.2044 4.00482 9.44129 4.32089 8.87868 4.8835C8.31607 5.4461 8 6.20917 8 7.00482" stroke="currentColor" stroke-width="1.5" stroke-linecap="round" stroke-linejoin="round"/>
</svg>
