<svg id="icon" width="24" height="24" viewBox="0 0 24 24" fill="none" xmlns="http://www.w3.org/2000/svg">
<path d="M9.876 20.554C9.00561 20.3566 8.16968 20.0299 7.396 19.585M13.876 2.99998C15.8642 3.45406 17.6392 4.56968 18.9107 6.16419C20.1821 7.75871 20.8744 9.73764 20.8744 11.777C20.8744 13.8163 20.1821 15.7953 18.9107 17.3898C17.6392 18.9843 15.8642 20.0999 13.876 20.554M4.455 16.87C3.90951 16.0775 3.4952 15.2023 3.228 14.278M3 10.277C3.16 9.32698 3.468 8.42698 3.9 7.60198L4.069 7.29698M6.783 4.35598C7.71866 3.71188 8.76832 3.2517 9.876 2.99998M11.876 8.77698L9.876 11.777H13.876L11.876 14.777" stroke="currentColor" stroke-width="1.5" stroke-linecap="round" stroke-linejoin="round"/>
</svg>
