<svg id="icon" width="24" height="24" viewBox="0 0 24 24" fill="none" xmlns="http://www.w3.org/2000/svg">
<path d="M8.18018 8.18899C8.37261 8.80508 8.71092 9.36561 9.16636 9.82296C9.6218 10.2803 10.1809 10.621 10.7962 10.816M14.3032 10.271C14.7804 9.9343 15.1781 9.49719 15.4684 8.99036C15.7587 8.48354 15.9344 7.9193 15.9833 7.33729C16.0322 6.75529 15.953 6.16964 15.7514 5.6215C15.5497 5.07336 15.2305 4.57602 14.8161 4.16445C14.4017 3.75287 13.9022 3.43703 13.3527 3.23913C12.8032 3.04123 12.217 2.96606 11.6353 3.01891C11.0537 3.07177 10.4907 3.25136 9.98582 3.54506C9.48099 3.83877 9.0466 4.23946 8.71318 4.71899M6 21V19C6 17.9391 6.42143 16.9217 7.17157 16.1716C7.92172 15.4214 8.93913 15 10 15H14C14.412 15 14.81 15.062 15.183 15.178M17.816 17.796C17.936 18.176 18 18.581 18 19V21M3 3L21 21" stroke="currentColor" stroke-width="1.5" stroke-linecap="round" stroke-linejoin="round"/>
</svg>
