<svg id="icon" width="24" height="24" viewBox="0 0 24 24" fill="none" xmlns="http://www.w3.org/2000/svg">
<path d="M4.00177 4H6.00177M5.00177 3V5M11.5018 3L11.0018 5M18.0018 4H20.0018M19.0018 3V5M15.0018 8L14.0018 9M18.0018 12L20.0018 11.5M18.0018 18H20.0018M19.0018 17V19M14.0018 15.518L7.48376 9L3.09376 18.58C3.00699 18.766 2.97955 18.9742 3.01518 19.1763C3.0508 19.3785 3.14776 19.5647 3.29289 19.7099C3.43802 19.855 3.6243 19.952 3.82643 19.9876C4.02856 20.0232 4.23676 19.9958 4.42276 19.909L14.0018 15.518Z" stroke="currentColor" stroke-width="1.5" stroke-linecap="round" stroke-linejoin="round"/>
</svg>
