<svg id="icon" width="24" height="24" viewBox="0 0 24 24" fill="none" xmlns="http://www.w3.org/2000/svg">
<path d="M7.41322 9.91938H9.91938V7.41322L6.99553 4.48936C7.93085 4.04266 8.98166 3.89691 10.0033 4.07219C11.0249 4.24747 11.967 4.73515 12.6999 5.46808C13.4328 6.20101 13.9205 7.14314 14.0958 8.16474C14.2711 9.18633 14.1253 10.2371 13.6786 11.1725L18.691 16.1848C19.0233 16.5171 19.21 16.9679 19.21 17.4379C19.21 17.9079 19.0233 18.3586 18.691 18.691C18.3586 19.0233 17.9079 19.21 17.4379 19.21C16.9679 19.21 16.5171 19.0233 16.1848 18.691L11.1725 13.6786C10.2371 14.1253 9.18633 14.2711 8.16474 14.0958C7.14314 13.9205 6.20101 13.4328 5.46808 12.6999C4.73515 11.967 4.24747 11.0249 4.07219 10.0033C3.89691 8.98166 4.04266 7.93085 4.48936 6.99553L7.41322 9.91938Z" stroke="currentColor" stroke-width="1.5" stroke-linecap="round" stroke-linejoin="round"/>
</svg>
